<svg width="97" height="87" viewBox="0 0 97 87" fill="none" xmlns="http://www.w3.org/2000/svg">
<circle cx="43.5" cy="42.5" r="42.5" fill="#3A76F4" fill-opacity="0.1"/>
<circle cx="44" cy="42" r="24" fill="#3A76F4" fill-opacity="0.2" stroke="#3A76F4" stroke-width="2"/>
<circle cx="44" cy="42" r="17" fill="white" fill-opacity="0.6" stroke="#3A76F4" stroke-width="2"/>
<path d="M60.5062 60.4083L65.6426 54.275L91.7092 76.1045C93.4029 77.5229 93.6261 80.0457 92.2077 81.7394C90.7893 83.4331 88.2665 83.6562 86.5729 82.2379L60.5062 60.4083Z" fill="#3A76F4" fill-opacity="0.2" stroke="#3A76F4" stroke-width="2"/>
<line x1="36.1213" y1="34" x2="51.6777" y2="49.5564" stroke="#3A76F4" stroke-width="3" stroke-linecap="round"/>
<line x1="36" y1="49.5564" x2="51.5564" y2="34" stroke="#3A76F4" stroke-width="3" stroke-linecap="round"/>
<circle cx="57.5" cy="82.5" r="2.5" fill="#3A76F4" stroke="#3A76F4" stroke-width="2"/>
<circle cx="12.5" cy="52.5" r="2.5" fill="#3A76F4" stroke="#3A76F4" stroke-width="2"/>
<circle cx="19.5" cy="10.5" r="2.5" fill="#3A76F4" stroke="#3A76F4" stroke-width="2"/>
<circle cx="75.5" cy="45.5" r="2.5" fill="#3A76F4" stroke="#3A76F4" stroke-width="2"/>
<circle cx="88.5" cy="27.5" r="2.5" fill="#3A76F4" stroke="#3A76F4" stroke-width="2"/>
<circle cx="1.5" cy="26.5" r="1" fill="#3A76F4" stroke="#3A76F4"/>
<path d="M87 64C87 64.2761 86.7761 64.5 86.5 64.5C86.2239 64.5 86 64.2761 86 64C86 63.7239 86.2239 63.5 86.5 63.5C86.7761 63.5 87 63.7239 87 64Z" fill="#3A76F4" stroke="#3A76F4" stroke-width="2"/>
<circle cx="28.5" cy="74.5" r="1" fill="#3A76F4" stroke="#3A76F4"/>
<circle cx="55.5" cy="5.5" r="1" fill="#3A76F4" stroke="#3A76F4"/>
<circle cx="9.5" cy="70.5" r="1" fill="#3A76F4" stroke="#3A76F4"/>
<circle cx="30.5" cy="15.5" r="1" fill="#3A76F4" stroke="#3A76F4"/>
<circle cx="70.5" cy="24.5" r="1" fill="#3A76F4" stroke="#3A76F4"/>
</svg>
